<mxfile host="app.diagrams.net" modified="2024-06-29T03:22:41.439Z" agent="Mozilla/5.0 (Windows NT 10.0; Win64; x64) AppleWebKit/537.36 (KHTML, like Gecko) Chrome/126.0.0.0 Safari/537.36" etag="VvLoO4-ZlUyjD3v1uLQx" version="24.3.0" type="device">
  <diagram name="Page-1" id="SS92N5-v-ch559ZieDsm">
    <mxGraphModel dx="1433" dy="686" grid="1" gridSize="10" guides="1" tooltips="1" connect="1" arrows="1" fold="1" page="1" pageScale="1" pageWidth="850" pageHeight="1100" math="0" shadow="0">
      <root>
        <mxCell id="0" />
        <mxCell id="1" parent="0" />
        <mxCell id="Dkk5pPjBdLhrVbEnvs7Z-14" value="" style="edgeStyle=orthogonalEdgeStyle;rounded=0;orthogonalLoop=1;jettySize=auto;html=1;" edge="1" parent="1" source="Dkk5pPjBdLhrVbEnvs7Z-11" target="Dkk5pPjBdLhrVbEnvs7Z-13">
          <mxGeometry relative="1" as="geometry" />
        </mxCell>
        <mxCell id="Dkk5pPjBdLhrVbEnvs7Z-15" value="Check" style="edgeLabel;html=1;align=center;verticalAlign=middle;resizable=0;points=[];" vertex="1" connectable="0" parent="Dkk5pPjBdLhrVbEnvs7Z-14">
          <mxGeometry x="-0.2615" y="-1" relative="1" as="geometry">
            <mxPoint x="1" y="2" as="offset" />
          </mxGeometry>
        </mxCell>
        <mxCell id="Dkk5pPjBdLhrVbEnvs7Z-11" value="User inputs year" style="whiteSpace=wrap;html=1;" vertex="1" parent="1">
          <mxGeometry x="235" y="20" width="110" height="50" as="geometry" />
        </mxCell>
        <mxCell id="Dkk5pPjBdLhrVbEnvs7Z-19" value="" style="edgeStyle=orthogonalEdgeStyle;rounded=0;orthogonalLoop=1;jettySize=auto;html=1;entryX=0.5;entryY=0;entryDx=0;entryDy=0;" edge="1" parent="1" source="Dkk5pPjBdLhrVbEnvs7Z-13" target="Dkk5pPjBdLhrVbEnvs7Z-24">
          <mxGeometry relative="1" as="geometry">
            <mxPoint x="120" y="230" as="targetPoint" />
          </mxGeometry>
        </mxCell>
        <mxCell id="Dkk5pPjBdLhrVbEnvs7Z-21" value="Yes" style="edgeLabel;html=1;align=center;verticalAlign=middle;resizable=0;points=[];" vertex="1" connectable="0" parent="Dkk5pPjBdLhrVbEnvs7Z-19">
          <mxGeometry x="-0.2921" y="1" relative="1" as="geometry">
            <mxPoint x="12" y="-1" as="offset" />
          </mxGeometry>
        </mxCell>
        <mxCell id="Dkk5pPjBdLhrVbEnvs7Z-26" value="" style="edgeStyle=orthogonalEdgeStyle;rounded=0;orthogonalLoop=1;jettySize=auto;html=1;" edge="1" parent="1" source="Dkk5pPjBdLhrVbEnvs7Z-13" target="Dkk5pPjBdLhrVbEnvs7Z-25">
          <mxGeometry relative="1" as="geometry" />
        </mxCell>
        <mxCell id="Dkk5pPjBdLhrVbEnvs7Z-27" value="No" style="edgeLabel;html=1;align=center;verticalAlign=middle;resizable=0;points=[];" vertex="1" connectable="0" parent="Dkk5pPjBdLhrVbEnvs7Z-26">
          <mxGeometry x="-0.439" y="-1" relative="1" as="geometry">
            <mxPoint x="33" y="-1" as="offset" />
          </mxGeometry>
        </mxCell>
        <mxCell id="Dkk5pPjBdLhrVbEnvs7Z-13" value="year % 400 == 0" style="rhombus;whiteSpace=wrap;html=1;" vertex="1" parent="1">
          <mxGeometry x="240" y="120" width="100" height="95" as="geometry" />
        </mxCell>
        <mxCell id="Dkk5pPjBdLhrVbEnvs7Z-24" value="print It&#39;s a leap year" style="rounded=0;whiteSpace=wrap;html=1;" vertex="1" parent="1">
          <mxGeometry x="60" y="250" width="120" height="60" as="geometry" />
        </mxCell>
        <mxCell id="Dkk5pPjBdLhrVbEnvs7Z-29" value="" style="edgeStyle=orthogonalEdgeStyle;rounded=0;orthogonalLoop=1;jettySize=auto;html=1;" edge="1" parent="1" source="Dkk5pPjBdLhrVbEnvs7Z-25" target="Dkk5pPjBdLhrVbEnvs7Z-28">
          <mxGeometry relative="1" as="geometry" />
        </mxCell>
        <mxCell id="Dkk5pPjBdLhrVbEnvs7Z-33" value="Yes" style="edgeLabel;html=1;align=center;verticalAlign=middle;resizable=0;points=[];" vertex="1" connectable="0" parent="Dkk5pPjBdLhrVbEnvs7Z-29">
          <mxGeometry x="-0.6523" y="1" relative="1" as="geometry">
            <mxPoint x="8" y="1" as="offset" />
          </mxGeometry>
        </mxCell>
        <mxCell id="Dkk5pPjBdLhrVbEnvs7Z-31" value="" style="edgeStyle=orthogonalEdgeStyle;rounded=0;orthogonalLoop=1;jettySize=auto;html=1;" edge="1" parent="1" source="Dkk5pPjBdLhrVbEnvs7Z-25" target="Dkk5pPjBdLhrVbEnvs7Z-30">
          <mxGeometry relative="1" as="geometry" />
        </mxCell>
        <mxCell id="Dkk5pPjBdLhrVbEnvs7Z-32" value="No" style="edgeLabel;html=1;align=center;verticalAlign=middle;resizable=0;points=[];" vertex="1" connectable="0" parent="Dkk5pPjBdLhrVbEnvs7Z-31">
          <mxGeometry x="-0.6405" y="-1" relative="1" as="geometry">
            <mxPoint y="1" as="offset" />
          </mxGeometry>
        </mxCell>
        <mxCell id="Dkk5pPjBdLhrVbEnvs7Z-25" value="year % 4 == 0" style="rhombus;whiteSpace=wrap;html=1;" vertex="1" parent="1">
          <mxGeometry x="430" y="230" width="100" height="95" as="geometry" />
        </mxCell>
        <mxCell id="Dkk5pPjBdLhrVbEnvs7Z-35" value="" style="edgeStyle=orthogonalEdgeStyle;rounded=0;orthogonalLoop=1;jettySize=auto;html=1;" edge="1" parent="1" source="Dkk5pPjBdLhrVbEnvs7Z-28" target="Dkk5pPjBdLhrVbEnvs7Z-34">
          <mxGeometry relative="1" as="geometry" />
        </mxCell>
        <mxCell id="Dkk5pPjBdLhrVbEnvs7Z-36" value="NO" style="edgeLabel;html=1;align=center;verticalAlign=middle;resizable=0;points=[];" vertex="1" connectable="0" parent="Dkk5pPjBdLhrVbEnvs7Z-35">
          <mxGeometry x="-0.4408" y="-4" relative="1" as="geometry">
            <mxPoint x="5" y="4" as="offset" />
          </mxGeometry>
        </mxCell>
        <mxCell id="Dkk5pPjBdLhrVbEnvs7Z-38" value="" style="edgeStyle=orthogonalEdgeStyle;rounded=0;orthogonalLoop=1;jettySize=auto;html=1;" edge="1" parent="1" source="Dkk5pPjBdLhrVbEnvs7Z-28" target="Dkk5pPjBdLhrVbEnvs7Z-37">
          <mxGeometry relative="1" as="geometry" />
        </mxCell>
        <mxCell id="Dkk5pPjBdLhrVbEnvs7Z-39" value="Yes" style="edgeLabel;html=1;align=center;verticalAlign=middle;resizable=0;points=[];" vertex="1" connectable="0" parent="Dkk5pPjBdLhrVbEnvs7Z-38">
          <mxGeometry x="-0.6318" y="3" relative="1" as="geometry">
            <mxPoint x="-2" y="3" as="offset" />
          </mxGeometry>
        </mxCell>
        <mxCell id="Dkk5pPjBdLhrVbEnvs7Z-28" value="year % 100 == 0" style="rhombus;whiteSpace=wrap;html=1;" vertex="1" parent="1">
          <mxGeometry x="575" y="393" width="100" height="95" as="geometry" />
        </mxCell>
        <mxCell id="Dkk5pPjBdLhrVbEnvs7Z-30" value="print It&#39;s NOT a leap year" style="whiteSpace=wrap;html=1;" vertex="1" parent="1">
          <mxGeometry x="300" y="410" width="120" height="60" as="geometry" />
        </mxCell>
        <mxCell id="Dkk5pPjBdLhrVbEnvs7Z-34" value="print It&#39;s a leap year" style="whiteSpace=wrap;html=1;" vertex="1" parent="1">
          <mxGeometry x="450" y="520" width="120" height="60" as="geometry" />
        </mxCell>
        <mxCell id="Dkk5pPjBdLhrVbEnvs7Z-37" value="print It&#39;s NOT a leap year" style="whiteSpace=wrap;html=1;" vertex="1" parent="1">
          <mxGeometry x="680" y="520" width="120" height="60" as="geometry" />
        </mxCell>
      </root>
    </mxGraphModel>
  </diagram>
</mxfile>
